<mxfile host="app.diagrams.net" agent="Mozilla/5.0 (Windows NT 10.0; Win64; x64) AppleWebKit/537.36 (KHTML, like Gecko) Chrome/133.0.0.0 Safari/537.36" version="26.0.10">
  <diagram name="Page-1" id="TukYMqiGpp8mlapmFH79">
    <mxGraphModel dx="1593" dy="2131" grid="1" gridSize="10" guides="1" tooltips="1" connect="1" arrows="1" fold="1" page="1" pageScale="1" pageWidth="1654" pageHeight="1169" math="0" shadow="0">
      <root>
        <mxCell id="0" />
        <mxCell id="1" parent="0" />
        <mxCell id="dTqkFYYw8kc_q8SnELJO-9" value="Bruger" style="shape=umlActor;verticalLabelPosition=bottom;verticalAlign=top;html=1;outlineConnect=0;" vertex="1" parent="1">
          <mxGeometry x="65" y="29" width="30" height="50" as="geometry" />
        </mxCell>
        <mxCell id="dTqkFYYw8kc_q8SnELJO-12" value="" style="endArrow=none;html=1;rounded=0;dashed=1;" edge="1" parent="1">
          <mxGeometry width="50" height="50" relative="1" as="geometry">
            <mxPoint x="79.94" y="837" as="sourcePoint" />
            <mxPoint x="79.44" y="117" as="targetPoint" />
          </mxGeometry>
        </mxCell>
        <mxCell id="dTqkFYYw8kc_q8SnELJO-14" value="GUI&lt;div&gt;planlægger&lt;/div&gt;" style="shape=umlBoundary;whiteSpace=wrap;html=1;labelPosition=center;verticalLabelPosition=top;align=center;verticalAlign=bottom;" vertex="1" parent="1">
          <mxGeometry x="160" y="29" width="70" height="60" as="geometry" />
        </mxCell>
        <mxCell id="dTqkFYYw8kc_q8SnELJO-15" value="Planlægningssystem&lt;div&gt;Backend&lt;/div&gt;" style="shape=umlBoundary;whiteSpace=wrap;html=1;labelPosition=center;verticalLabelPosition=top;align=center;verticalAlign=bottom;" vertex="1" parent="1">
          <mxGeometry x="280" y="29" width="70" height="60" as="geometry" />
        </mxCell>
        <mxCell id="dTqkFYYw8kc_q8SnELJO-16" value="Planmotor&lt;div&gt;(Rapidis)&lt;/div&gt;" style="shape=umlBoundary;whiteSpace=wrap;html=1;labelPosition=center;verticalLabelPosition=top;align=center;verticalAlign=bottom;" vertex="1" parent="1">
          <mxGeometry x="400" y="29" width="70" height="60" as="geometry" />
        </mxCell>
        <mxCell id="dTqkFYYw8kc_q8SnELJO-19" value="Omsorgssystem&lt;div&gt;API&lt;/div&gt;" style="shape=umlBoundary;whiteSpace=wrap;html=1;labelPosition=center;verticalLabelPosition=top;align=center;verticalAlign=bottom;" vertex="1" parent="1">
          <mxGeometry x="520" y="29" width="70" height="60" as="geometry" />
        </mxCell>
        <mxCell id="dTqkFYYw8kc_q8SnELJO-23" value="Omsorgssystem&lt;div&gt;GUI&lt;/div&gt;" style="shape=umlBoundary;whiteSpace=wrap;html=1;labelPosition=center;verticalLabelPosition=top;align=center;verticalAlign=bottom;" vertex="1" parent="1">
          <mxGeometry x="757" y="29" width="70" height="60" as="geometry" />
        </mxCell>
        <mxCell id="dTqkFYYw8kc_q8SnELJO-27" value="Omsorgssystem DB" style="strokeWidth=1;html=1;shape=mxgraph.flowchart.database;whiteSpace=wrap;strokeColor=default;align=center;verticalAlign=bottom;fontFamily=Helvetica;fontSize=12;fontColor=default;fillColor=default;labelPosition=center;verticalLabelPosition=top;" vertex="1" parent="1">
          <mxGeometry x="648" y="29" width="60" height="60" as="geometry" />
        </mxCell>
        <mxCell id="dTqkFYYw8kc_q8SnELJO-28" value="" style="endArrow=none;html=1;rounded=0;dashed=1;" edge="1" parent="1">
          <mxGeometry width="50" height="50" relative="1" as="geometry">
            <mxPoint x="199.94000000000005" y="837" as="sourcePoint" />
            <mxPoint x="199.44000000000005" y="117" as="targetPoint" />
          </mxGeometry>
        </mxCell>
        <mxCell id="dTqkFYYw8kc_q8SnELJO-29" value="Hent alle besøg og ressourcer" style="endArrow=classic;html=1;rounded=0;fontFamily=Helvetica;fontSize=12;fontColor=default;labelPosition=center;verticalLabelPosition=bottom;align=center;verticalAlign=top;" edge="1" parent="1">
          <mxGeometry width="50" height="50" relative="1" as="geometry">
            <mxPoint x="80" y="160" as="sourcePoint" />
            <mxPoint x="200" y="160" as="targetPoint" />
          </mxGeometry>
        </mxCell>
        <mxCell id="dTqkFYYw8kc_q8SnELJO-30" value="" style="endArrow=none;html=1;rounded=0;dashed=1;" edge="1" parent="1">
          <mxGeometry width="50" height="50" relative="1" as="geometry">
            <mxPoint x="318.94000000000005" y="836" as="sourcePoint" />
            <mxPoint x="318.44000000000005" y="116" as="targetPoint" />
          </mxGeometry>
        </mxCell>
        <mxCell id="dTqkFYYw8kc_q8SnELJO-31" value="Hent alle besøg og ressourcer" style="endArrow=classic;html=1;rounded=0;fontFamily=Helvetica;fontSize=12;fontColor=default;labelPosition=center;verticalLabelPosition=bottom;align=center;verticalAlign=top;" edge="1" parent="1">
          <mxGeometry width="50" height="50" relative="1" as="geometry">
            <mxPoint x="200" y="200" as="sourcePoint" />
            <mxPoint x="320" y="200" as="targetPoint" />
          </mxGeometry>
        </mxCell>
        <mxCell id="dTqkFYYw8kc_q8SnELJO-32" value="" style="endArrow=none;html=1;rounded=0;dashed=1;" edge="1" parent="1">
          <mxGeometry width="50" height="50" relative="1" as="geometry">
            <mxPoint x="440.50000000000006" y="835" as="sourcePoint" />
            <mxPoint x="440.00000000000006" y="115" as="targetPoint" />
          </mxGeometry>
        </mxCell>
        <mxCell id="dTqkFYYw8kc_q8SnELJO-33" value="" style="endArrow=none;html=1;rounded=0;dashed=1;" edge="1" parent="1">
          <mxGeometry width="50" height="50" relative="1" as="geometry">
            <mxPoint x="560.5" y="836" as="sourcePoint" />
            <mxPoint x="560" y="116" as="targetPoint" />
          </mxGeometry>
        </mxCell>
        <mxCell id="dTqkFYYw8kc_q8SnELJO-34" value="Hent alle besøg og ressourcer" style="endArrow=classic;html=1;rounded=0;fontFamily=Helvetica;fontSize=12;fontColor=default;labelPosition=center;verticalLabelPosition=bottom;align=center;verticalAlign=top;curved=0;strokeColor=default;jumpStyle=arc;" edge="1" parent="1">
          <mxGeometry width="50" height="50" relative="1" as="geometry">
            <mxPoint x="320" y="240" as="sourcePoint" />
            <mxPoint x="560" y="240" as="targetPoint" />
          </mxGeometry>
        </mxCell>
        <mxCell id="dTqkFYYw8kc_q8SnELJO-37" value="" style="endArrow=none;html=1;rounded=0;dashed=1;" edge="1" parent="1">
          <mxGeometry width="50" height="50" relative="1" as="geometry">
            <mxPoint x="679.94" y="836" as="sourcePoint" />
            <mxPoint x="679.44" y="116" as="targetPoint" />
          </mxGeometry>
        </mxCell>
        <mxCell id="dTqkFYYw8kc_q8SnELJO-38" value="" style="endArrow=none;html=1;rounded=0;dashed=1;" edge="1" parent="1">
          <mxGeometry width="50" height="50" relative="1" as="geometry">
            <mxPoint x="799.5" y="836" as="sourcePoint" />
            <mxPoint x="799" y="116" as="targetPoint" />
          </mxGeometry>
        </mxCell>
        <mxCell id="dTqkFYYw8kc_q8SnELJO-39" value="Hent alle besøg og ressourcer" style="endArrow=none;html=1;rounded=0;fontFamily=Helvetica;fontSize=12;fontColor=default;labelPosition=center;verticalLabelPosition=bottom;align=center;verticalAlign=top;startArrow=classic;startFill=1;" edge="1" parent="1">
          <mxGeometry width="50" height="50" relative="1" as="geometry">
            <mxPoint x="560" y="280" as="sourcePoint" />
            <mxPoint x="680" y="280" as="targetPoint" />
          </mxGeometry>
        </mxCell>
        <mxCell id="dTqkFYYw8kc_q8SnELJO-40" value="Returner alle besøg og ressourcer" style="endArrow=none;html=1;rounded=0;fontFamily=Helvetica;fontSize=12;fontColor=default;labelPosition=center;verticalLabelPosition=bottom;align=center;verticalAlign=top;curved=0;strokeColor=default;jumpStyle=arc;startFill=1;startArrow=classic;" edge="1" parent="1">
          <mxGeometry width="50" height="50" relative="1" as="geometry">
            <mxPoint x="320" y="330" as="sourcePoint" />
            <mxPoint x="560" y="330" as="targetPoint" />
          </mxGeometry>
        </mxCell>
        <mxCell id="dTqkFYYw8kc_q8SnELJO-50" value="" style="edgeStyle=elbowEdgeStyle;elbow=horizontal;endArrow=classic;html=1;curved=0;rounded=0;endSize=8;startSize=8;fontFamily=Helvetica;fontSize=12;fontColor=default;" edge="1" parent="1">
          <mxGeometry width="50" height="50" relative="1" as="geometry">
            <mxPoint x="320.0000000000009" y="380" as="sourcePoint" />
            <mxPoint x="320" y="430" as="targetPoint" />
            <Array as="points">
              <mxPoint x="380" y="400" />
            </Array>
          </mxGeometry>
        </mxCell>
        <mxCell id="dTqkFYYw8kc_q8SnELJO-51" value="Berig med&lt;div&gt;lokale metadata&lt;/div&gt;" style="edgeLabel;html=1;align=left;verticalAlign=middle;resizable=0;points=[];strokeColor=default;fontFamily=Helvetica;fontSize=12;fontColor=default;fillColor=default;labelPosition=right;verticalLabelPosition=middle;" vertex="1" connectable="0" parent="dTqkFYYw8kc_q8SnELJO-50">
          <mxGeometry x="-0.4601" y="-2" relative="1" as="geometry">
            <mxPoint x="-22" y="23" as="offset" />
          </mxGeometry>
        </mxCell>
      </root>
    </mxGraphModel>
  </diagram>
</mxfile>
